<?xml version="1.0" standalone="no"?>
<!DOCTYPE svg PUBLIC "-//W3C//DTD SVG 1.1//EN" "http://www.w3.org/Graphics/SVG/1.1/DTD/svg11.dtd" >
<svg xmlns="http://www.w3.org/2000/svg">
<metadata></metadata>
<defs>
<font id="FranklinGothicFSCapsCdBold" horiz-adv-x="1046" >
<font-face units-per-em="2048" ascent="1694" descent="-354" />
<missing-glyph horiz-adv-x="382" />
<glyph horiz-adv-x="0" />
<glyph horiz-adv-x="2048" />
<glyph unicode=" "  horiz-adv-x="382" />
<glyph unicode="&#x09;" horiz-adv-x="382" />
<glyph unicode="&#xa0;" horiz-adv-x="382" />
<glyph unicode="!" horiz-adv-x="559" d="M154 1034h252l-56 -749h-141zM178 0v207h201v-207h-201z" />
<glyph unicode="&#x22;" d="M262 1366h211l-33 -561h-145zM575 1366h211l-32 -561h-146z" />
<glyph unicode="#" d="M18 426l23 139h199l45 264h-199l23 140h198l66 397h147l-65 -397h227l66 397h147l-68 -397h199l-22 -140h-199l-45 -264h198l-22 -139h-199l-71 -426h-148l72 426h-225l-72 -426h-148l72 426h-199zM387 565h225l45 264h-225z" />
<glyph unicode="$" d="M92 369l180 61q44 -191 199 -221v405q-120 40 -182 82q-69 47 -107.5 121.5t-38.5 161.5q0 89 39 168.5t105 126.5q36 27 76 41.5t104 23.5v136h125v-136q132 -13 214 -80.5t120 -193.5l-162 -68q-32 88 -69.5 126t-110.5 57v-377q198 -52 284 -140.5t86 -238.5 q0 -197 -139 -305q-46 -36 -95 -53.5t-128 -26.5v-174h-125v174q-154 19 -244 98.5t-131 231.5zM336 1006q0 -63 31.5 -102.5t103.5 -65.5v338q-70 -22 -102.5 -63t-32.5 -107zM584 207q86 12 131 60t45 126q0 77 -42 122t-134 67v-375z" />
<glyph unicode="%" horiz-adv-x="1394" d="M88 1026q0 164 72 258t198 94q123 0 195 -94.5t72 -257.5q0 -164 -72 -259t-197 -95q-124 0 -196 95t-72 259zM248 1026q0 -117 26.5 -173t81.5 -56q57 0 83 54t26 173t-26 174t-81 55q-57 0 -83.5 -55t-26.5 -172zM299 0l668 1366h135l-668 -1366h-135zM772 342 q0 164 72 258t198 94q122 0 194.5 -95.5t72.5 -256.5q0 -164 -72 -259t-197 -95q-124 0 -196 95t-72 259zM930 338q0 -115 26.5 -170t83.5 -55q56 0 82.5 55t26.5 172q0 229 -109 229q-57 0 -83.5 -55.5t-26.5 -175.5z" />
<glyph unicode="&#x26;" d="M111 291q0 199 221 303q-86 133 -86 225q0 98 75 166t185 68q109 0 177.5 -64.5t68.5 -167.5q0 -162 -185 -266l158 -221q65 134 82 256l156 -33q-45 -219 -140 -352q30 -33 49 -45.5t43 -12.5q22 0 62 13v-156q-58 -18 -105 -18q-48 0 -86.5 21t-85.5 73 q-65 -53 -125.5 -75.5t-136.5 -22.5q-146 0 -236.5 86t-90.5 223zM315 301q0 -76 40 -122t106 -46q83 0 149 66l-196 278q-99 -71 -99 -176zM424 821q0 -64 61 -153q45 25 73 67t28 86q0 41 -21.5 66.5t-56.5 25.5q-38 0 -61 -25.5t-23 -66.5z" />
<glyph unicode="'" horiz-adv-x="698" d="M244 1366h211l-33 -561h-146z" />
<glyph unicode="(" horiz-adv-x="663" d="M109 512q0 456 276 854h166q-234 -388 -234 -854q0 -229 60 -447.5t174 -406.5h-166q-276 395 -276 854z" />
<glyph unicode=")" horiz-adv-x="663" d="M113 -342q114 187 173.5 406.5t59.5 447.5t-59.5 446.5t-173.5 407.5h166q276 -401 276 -854q0 -456 -276 -854h-166z" />
<glyph unicode="*" d="M176 897l236 104l-236 107l70 137l225 -149l-22 270h149l-23 -270l226 149l69 -137l-235 -107l235 -104l-69 -137l-226 149l23 -270h-149l22 270l-225 -149z" />
<glyph unicode="+" d="M104 600v166h332v336h174v-336h332v-166h-332v-336h-174v336h-332z" />
<glyph unicode="," horiz-adv-x="489" d="M121 -289l125 289h-105v258h228v-246l-148 -301h-100z" />
<glyph unicode="-" horiz-adv-x="593" d="M80 428v168h432v-168h-432z" />
<glyph unicode="." horiz-adv-x="489" d="M131 0v258h227v-258h-227z" />
<glyph unicode="/" horiz-adv-x="976" d="M-31 -342l754 1708h156l-754 -1708h-156z" />
<glyph unicode="0" horiz-adv-x="1011" d="M76 502q0 255 113.5 393.5t322.5 138.5q200 0 313 -140t113 -390t-114 -389.5t-318 -139.5q-203 0 -316.5 139t-113.5 388zM305 506q0 -367 201 -367q100 0 151.5 92.5t51.5 272.5q0 179 -51.5 272.5t-149.5 93.5q-100 0 -151.5 -92t-51.5 -272z" />
<glyph unicode="1" horiz-adv-x="768" d="M100 567v211q152 82 277 246h155v-856h197v-168h-620v168h213v580q-87 -107 -222 -181z" />
<glyph unicode="2" horiz-adv-x="942" d="M63 0v168q227 147 343.5 237.5t165.5 158t49 136.5q0 70 -44.5 115t-115.5 45q-157 0 -213 -196l-185 41q29 94 61 145.5t89 97.5q117 94 274 94q165 0 266 -88t101 -231q0 -76 -23 -135.5t-83.5 -122t-157 -126.5t-252.5 -149h522l-10 -190h-787z" />
<glyph unicode="3" horiz-adv-x="942" d="M-8 -4l194 47q47 -233 240 -233q98 0 157.5 65.5t59.5 171.5q0 112 -67 170.5t-193 58.5h-21l-86 -2v168h86q83 0 119 8.5t68 36.5q67 55 67 164q0 98 -50 155.5t-136 57.5q-83 0 -134.5 -49t-82.5 -156l-184 46q22 76 46 121.5t66 88.5q119 119 310 119 q180 0 284.5 -97.5t104.5 -264.5q0 -110 -49 -179.5t-166 -123.5q252 -68 252 -334q0 -181 -121.5 -291.5t-319.5 -110.5q-105 0 -196 36.5t-148 101.5q-41 44 -63 93t-37 132z" />
<glyph unicode="4" horiz-adv-x="1011" d="M43 0v162l498 862h264v-852h172v-172h-172v-342h-217v342h-545zM227 166h371v676z" />
<glyph unicode="5" horiz-adv-x="976" d="M66 -18l198 49q29 -115 83 -164t151 -49q106 0 161.5 72.5t55.5 209.5q0 135 -55 208t-158 73q-75 0 -125.5 -35.5t-85.5 -114.5l-172 35l43 744h700l-22 -191h-506l-21 -379q56 69 112.5 98t139.5 29q169 0 268 -123t99 -333q0 -223 -117 -350.5t-321 -127.5 q-191 0 -314 117q-47 46 -72 96.5t-42 135.5z" />
<glyph unicode="6" d="M96 655q0 347 123.5 541.5t343.5 194.5q148 0 250 -82q56 -44 87 -99t56 -151l-188 -60q-28 113 -77 164t-130 51q-128 0 -188.5 -125.5t-69.5 -410.5q53 108 121 155.5t172 47.5q164 0 268.5 -125t104.5 -320q0 -209 -114.5 -335t-305.5 -126q-176 0 -287 117 q-86 89 -126 225t-40 338zM330 428q0 -124 60 -200t157 -76q100 0 151.5 70.5t51.5 207.5q0 131 -52 203t-147 72q-101 0 -161 -75.5t-60 -201.5z" />
<glyph unicode="7" horiz-adv-x="837" d="M31 819l16 191h772v-158q-169 -214 -272.5 -545t-100.5 -649h-237q0 305 107.5 609.5t301.5 551.5h-587z" />
<glyph unicode="8" d="M70 348q0 119 59 199.5t195 146.5q-113 70 -160 143.5t-47 178.5q0 169 115.5 272t304.5 103q183 0 291 -94.5t108 -254.5q0 -103 -49 -174t-162 -131q131 -66 192.5 -153.5t61.5 -208.5q0 -180 -128 -290t-337 -110q-207 0 -325.5 100t-118.5 273zM274 360 q0 -100 68 -161.5t180 -61.5q106 0 173 57t67 146t-59.5 147.5t-217.5 122.5q-117 -53 -164 -108.5t-47 -141.5zM334 1047q0 -80 50.5 -135.5t168.5 -100.5q13 6 26.5 13.5t18.5 9.5q141 81 141 204q0 86 -56.5 140.5t-147.5 54.5q-89 0 -145 -51.5t-56 -134.5z" />
<glyph unicode="9" horiz-adv-x="1011" d="M63 582q0 204 117.5 328t311.5 124q440 0 440 -655q0 -367 -119.5 -556.5t-351.5 -189.5q-147 0 -233 68.5t-142 228.5l195 58q28 -98 72 -139.5t122 -41.5q140 0 197 175q22 70 31.5 137t13.5 196q-54 -98 -118 -139t-161 -41q-163 0 -269 126.5t-106 320.5zM283 588 q0 -123 55.5 -194.5t150.5 -71.5t152 74.5t57 197.5q0 118 -56.5 192t-147.5 74q-98 0 -154.5 -72.5t-56.5 -199.5z" />
<glyph unicode=":" horiz-adv-x="489" d="M131 0v258h227v-258h-227zM131 752v258h227v-258h-227z" />
<glyph unicode=";" horiz-adv-x="489" d="M121 -289l125 289h-105v258h228v-246l-148 -301h-100zM141 752v258h228v-258h-228z" />
<glyph unicode="&#x3c;" d="M80 594v178l887 434v-207l-666 -317l666 -315v-207z" />
<glyph unicode="=" d="M104 459v166h838v-166h-838zM104 741v166h838v-166h-838z" />
<glyph unicode="&#x3e;" d="M80 160v207l665 317l-665 315v207l887 -436v-176z" />
<glyph unicode="?" horiz-adv-x="802" d="M61 723q27 330 330 330q142 0 226.5 -77t84.5 -208q0 -85 -35.5 -147t-125.5 -132q-68 -54 -80.5 -82.5t-11.5 -123.5h-173v49q0 108 22 153.5t110 120.5q45 39 64.5 77.5t19.5 90.5q0 60 -29 92.5t-82 32.5q-69 0 -103 -49.5t-40 -159.5zM264 0v205h197v-205h-197z" />
<glyph unicode="@" horiz-adv-x="1220" d="M14 514q0 161 46.5 297t129.5 231.5t201 149t258 53.5q255 0 406 -166t151 -448q0 -219 -94.5 -363.5t-237.5 -144.5q-63 0 -96.5 27t-52.5 90q-34 -64 -75 -92.5t-101 -28.5q-101 0 -162 90t-61 242q0 191 83 318.5t207 127.5q60 0 98 -29.5t66 -95.5l15 111h120 l-59 -422q-12 -98 -12 -137q0 -37 12 -53.5t39 -16.5q74 0 123 103.5t49 258.5q0 235 -113.5 371.5t-308.5 136.5q-212 0 -346.5 -170.5t-134.5 -437.5q0 -264 139 -424t369 -160q98 0 181.5 25t180.5 82l47 -109q-114 -63 -211 -90.5t-206 -27.5q-295 0 -472.5 192 t-177.5 510zM483 451q0 -83 26 -133t69 -50q63 0 102 86t39 224q0 79 -24.5 124.5t-65.5 45.5q-65 0 -105.5 -82.5t-40.5 -214.5z" />
<glyph unicode="A" horiz-adv-x="1011" d="M-8 0l395 1366h254l365 -1366h-230l-86 342h-399l-84 -342h-215zM336 520h309l-153 625z" />
<glyph unicode="B" horiz-adv-x="1116" d="M131 0v1366h414q122 0 181 -10t110 -41q64 -38 101.5 -118t37.5 -179q0 -115 -48.5 -186.5t-154.5 -112.5q57 -17 88.5 -34.5t59.5 -47.5q96 -101 96 -260q0 -101 -41 -183t-115 -128q-57 -37 -125.5 -51.5t-183.5 -14.5h-420zM352 180h183q123 0 186 56t63 163 q0 126 -82 183q-33 24 -74 33.5t-112 9.5h-164v-445zM352 799h144q132 0 189.5 46t57.5 152q0 103 -53 149t-172 46h-166v-393z" />
<glyph unicode="C" horiz-adv-x="1081" d="M86 682q0 339 130 524t368 185q192 0 302 -115.5t142 -351.5l-211 -31q-18 150 -57 213q-58 98 -172 98q-262 0 -262 -532q0 -510 264 -510q97 0 149 68t78 229l209 -29q-65 -455 -446 -455q-238 0 -366 183t-128 524z" />
<glyph unicode="D" horiz-adv-x="1150" d="M131 0v1366h307q255 0 398 -104q109 -82 169 -229.5t60 -336.5q0 -211 -72 -372.5t-202 -243.5q-125 -80 -336 -80h-324zM356 180h95q186 0 280 127.5t94 376.5q0 248 -95 375t-279 127h-95v-1006z" />
<glyph unicode="E" horiz-adv-x="942" d="M131 0v1366h782v-180h-557v-393h437v-181h-437v-428h566v-184h-791z" />
<glyph unicode="F" horiz-adv-x="872" d="M131 0v1366h758v-180h-533v-410h426v-180h-426v-596h-225z" />
<glyph unicode="G" horiz-adv-x="1150" d="M86 670q0 346 134 533.5t380 187.5q190 0 296.5 -99.5t147.5 -316.5l-204 -51q-30 132 -66 188q-61 92 -174 92q-138 0 -206 -129t-68 -393q0 -520 280 -520q234 0 234 352v4h-244v182h455v-710h-121l-29 174q-59 -98 -137.5 -143.5t-190.5 -45.5q-227 0 -357 185.5 t-130 509.5z" />
<glyph unicode="H" horiz-adv-x="1116" d="M131 0v1366h225v-567h404v567h225v-1366h-225v608h-404v-608h-225z" />
<glyph unicode="I" horiz-adv-x="489" d="M131 0v1366h225v-1366h-225z" />
<glyph unicode="J" horiz-adv-x="628" d="M-33 0v188q69 -20 133 -20q110 0 146 68q18 35 24 91t6 189v850h226v-850q0 -205 -21 -300.5t-78 -154.5q-86 -86 -260 -86q-59 0 -176 25z" />
<glyph unicode="K" d="M131 0v1366h225v-651l412 651h240l-353 -502l412 -864h-244l-305 676l-162 -227v-449h-225z" />
<glyph unicode="L" horiz-adv-x="837" d="M131 0v1366h225v-1176h484v-190h-709z" />
<glyph unicode="M" horiz-adv-x="1464" d="M127 0v1366h334l272 -985l281 985h321v-1366h-213v1165l-323 -1165h-166l-318 1167v-1167h-188z" />
<glyph unicode="N" horiz-adv-x="1150" d="M123 0v1366h266l449 -985v985h188v-1366h-211l-504 1094v-1094h-188z" />
<glyph unicode="O" horiz-adv-x="1150" d="M86 678q0 352 126.5 532.5t373.5 180.5q233 0 357 -182.5t124 -526.5q0 -346 -124.5 -526.5t-362.5 -180.5q-239 0 -366.5 181t-127.5 522zM324 684q0 -267 61 -394.5t190 -127.5q76 0 125.5 37.5t79.5 119.5q49 126 49 365q0 263 -61.5 391.5t-187.5 128.5 q-132 0 -194 -126.5t-62 -393.5z" />
<glyph unicode="P" horiz-adv-x="1011" d="M131 0v1366h338q132 0 209.5 -16t134.5 -56q74 -53 116 -143.5t42 -200.5q0 -119 -44 -211t-126 -141q-60 -37 -129 -50t-199 -13h-117v-535h-225zM356 715h113q150 0 201 51q63 60 63 188q0 137 -80 201q-29 23 -63.5 30t-120.5 7h-113v-477z" />
<glyph unicode="Q" horiz-adv-x="1150" d="M86 682q0 347 126 528t368 181q238 0 362.5 -180.5t124.5 -524.5q0 -404 -164 -582q-46 -46 -147 -94q0 -83 29 -115t104 -32q51 0 104 18v-172q-71 -24 -133 -24q-141 0 -208.5 70t-71.5 222q-246 1 -370 178.5t-124 526.5zM324 684q0 -269 61 -396.5t190 -127.5 q130 0 192 128t62 394q0 264 -61.5 393t-187.5 129q-132 0 -194 -126t-62 -394z" />
<glyph unicode="R" horiz-adv-x="1081" d="M131 0v1366h410q202 0 305 -78q63 -51 97 -132t34 -179q0 -127 -50.5 -213.5t-158.5 -145.5l258 -618h-244l-213 571h-213v-571h-225zM356 745h174q107 0 165.5 61t58.5 173q0 213 -224 213h-174v-447z" />
<glyph unicode="S" d="M47 356l201 58q28 -128 96 -190t180 -62q100 0 160.5 53.5t60.5 142.5q0 77 -50.5 126t-180.5 98q-144 55 -192 79t-97 66q-59 51 -91 123.5t-32 155.5q0 170 117 277.5t303 107.5q181 0 297 -107q44 -41 70 -89t53 -134l-192 -68q-38 115 -93 163t-147 48 q-83 0 -134.5 -48.5t-51.5 -123.5q0 -72 55 -121q30 -26 71 -45.5t146 -60.5q102 -39 158 -68t100 -67q59 -51 91 -124.5t32 -156.5q0 -183 -127.5 -298.5t-329.5 -115.5q-217 0 -346 129q-50 50 -77.5 105t-49.5 147z" />
<glyph unicode="T" horiz-adv-x="768" d="M-33 1174v192h834v-192h-307v-1174h-226v1174h-301z" />
<glyph unicode="U" horiz-adv-x="1116" d="M121 518v848h221v-848q0 -121 8 -176t31 -92q56 -88 192 -88q144 0 191 106q17 35 23 86t6 168v844h202v-834q0 -181 -18.5 -269t-69.5 -150q-111 -138 -348 -138q-257 0 -364 150q-40 59 -57 148.5t-17 244.5z" />
<glyph unicode="V" horiz-adv-x="942" d="M-8 1366h237l260 -1090l259 1090h200l-360 -1368l-244 2z" />
<glyph unicode="W" horiz-adv-x="1431" d="M4 1366h229l185 -1024l215 1024h194l213 -1024l195 1024h190l-288 -1368h-203l-215 1001l-213 -1001h-207z" />
<glyph unicode="X" horiz-adv-x="907" d="M-29 0l365 707l-322 659h252l197 -436l217 436h211l-316 -621l359 -745h-254l-231 522l-263 -522h-215z" />
<glyph unicode="Y" horiz-adv-x="837" d="M-66 1366h246l250 -569l256 569h215l-379 -788v-578h-225v578z" />
<glyph unicode="Z" horiz-adv-x="872" d="M2 0v174l600 1008h-563v184h819v-158l-604 -1018h620v-190h-872z" />
<glyph unicode="[" horiz-adv-x="663" d="M162 -342v1708h354v-115h-160v-1478h160v-115h-354z" />
<glyph unicode="\" horiz-adv-x="976" d="M98 1366h156l754 -1708h-156z" />
<glyph unicode="]" horiz-adv-x="663" d="M145 -227h162v1478h-162v115h357v-1708h-357v115z" />
<glyph unicode="^" horiz-adv-x="1024" d="M31 717l344 655h274l344 -655h-219l-262 489l-262 -489h-219z" />
<glyph unicode="_" horiz-adv-x="1024" d="M0 -115h1024v-188h-1024v188z" />
<glyph unicode="`" horiz-adv-x="1024" d="M225 1331l99 144l340 -258l-72 -82z" />
<glyph unicode="a" horiz-adv-x="837" d="M8 0l307 1034h224l284 -1034h-209l-65 252h-281l-65 -252h-195zM307 408h209l-104 413z" />
<glyph unicode="b" horiz-adv-x="907" d="M123 0v1034h332q99 0 144 -7.5t85 -31.5q51 -29 82 -92.5t31 -138.5q0 -78 -29.5 -126t-103.5 -91q78 -29 120.5 -95.5t42.5 -160.5q0 -82 -32.5 -145t-92.5 -97q-47 -28 -100 -38.5t-143 -10.5h-336zM328 156h125q163 0 163 151q0 82 -42.5 119t-135.5 37h-110v-307z M328 616h94q88 0 125 31t37 103q0 69 -34.5 99t-111.5 30h-110v-263z" />
<glyph unicode="c" horiz-adv-x="907" d="M84 514q0 258 109.5 398.5t310.5 140.5q156 0 244 -90.5t114 -278.5l-196 -27q-12 121 -50.5 176.5t-109.5 55.5q-97 0 -149 -96t-52 -273q0 -178 51.5 -276.5t143.5 -98.5q71 0 111 52.5t57 169.5l194 -25q-49 -360 -368 -360q-194 0 -302 140t-108 392z" />
<glyph unicode="d" horiz-adv-x="976" d="M123 0v1034h264q202 0 320 -78q89 -60 137.5 -172.5t48.5 -257.5q0 -161 -58.5 -283t-164.5 -184q-104 -59 -269 -59h-278zM332 156h65q275 0 275 362q0 361 -275 361h-65v-723z" />
<glyph unicode="e" horiz-adv-x="802" d="M123 0v1034h620v-155h-411v-269h321v-155h-321v-299h420v-156h-629z" />
<glyph unicode="f" horiz-adv-x="733" d="M123 0v1034h604v-155h-395v-285h313v-156h-313v-438h-209z" />
<glyph unicode="g" horiz-adv-x="976" d="M84 508q0 259 113 402t317 143q157 0 241.5 -78.5t116.5 -253.5l-182 -43q-23 120 -61.5 168.5t-110.5 48.5q-213 0 -213 -379q0 -377 219 -377q82 0 121 59.5t41 184.5h-186v158h374v-547h-116l-19 102q-56 -65 -109 -89.5t-136 -24.5q-191 0 -300.5 140t-109.5 386z " />
<glyph unicode="h" horiz-adv-x="942" d="M123 0v1034h209v-418h280v418h209v-1034h-209v451h-280v-451h-209z" />
<glyph unicode="i" horiz-adv-x="454" d="M123 0v1034h209v-1034h-209z" />
<glyph unicode="j" horiz-adv-x="524" d="M-20 2v166q60 -18 112 -18q31 0 49 5.5t32 19t20 43t9 69.5t3 106v641h209v-641q0 -158 -17.5 -229.5t-66.5 -114.5q-73 -67 -209 -67q-41 0 -141 20z" />
<glyph unicode="k" horiz-adv-x="872" d="M123 0v1034h209v-454l291 454h223l-285 -385l326 -649h-228l-221 485l-106 -145v-340h-209z" />
<glyph unicode="l" horiz-adv-x="663" d="M123 0v1034h209v-868h358v-166h-567z" />
<glyph unicode="m" horiz-adv-x="1185" d="M115 0v1034h299l174 -712l184 712h293v-1034h-193v831l-219 -831h-151l-213 827v-827h-174z" />
<glyph unicode="n" horiz-adv-x="942" d="M106 0v1034h238l313 -684v684h181v-1034h-199l-354 764v-764h-179z" />
<glyph unicode="o" horiz-adv-x="976" d="M84 514q0 264 104.5 401.5t305.5 137.5q192 0 294.5 -138.5t102.5 -398.5q0 -261 -103.5 -397.5t-298.5 -136.5q-196 0 -300.5 137t-104.5 395zM305 518q0 -193 44.5 -285t137.5 -92q94 0 138.5 92t44.5 285q0 375 -181 375q-95 0 -139.5 -91t-44.5 -284z" />
<glyph unicode="p" horiz-adv-x="837" d="M123 0v1034h280q103 0 163 -12t106 -43q60 -40 93.5 -109.5t33.5 -154.5q0 -90 -36 -161.5t-101 -109.5q-44 -28 -100 -38.5t-154 -10.5h-76v-395h-209zM332 555h71q97 0 136 36t39 126q0 92 -52 135q-19 17 -42 22t-81 5h-71v-324z" />
<glyph unicode="q" horiz-adv-x="942" d="M84 516q0 261 99.5 399t287.5 138q187 0 286 -137.5t99 -397.5q0 -306 -129 -438q-36 -36 -106 -68q0 -51 18 -69.5t66 -18.5q32 0 96 17v-154q-65 -23 -119 -23q-211 0 -223 218q-183 5 -279 141.5t-96 392.5zM305 518q0 -192 40.5 -283.5t123.5 -91.5q85 0 125.5 91.5 t40.5 283.5q0 375 -162 375q-86 0 -127 -91t-41 -284z" />
<glyph unicode="r" horiz-adv-x="907" d="M123 0v1034h332q163 0 245 -59q54 -39 82.5 -102.5t28.5 -139.5q0 -183 -156 -272l205 -461h-225l-158 420h-149v-420h-205zM328 575h116q75 0 115.5 41t40.5 119q0 144 -154 144h-118v-304z" />
<glyph unicode="s" horiz-adv-x="872" d="M49 285l180 49q20 -98 68 -143.5t131 -45.5q72 0 114 35.5t42 95.5q0 54 -36.5 88t-131.5 68q-102 37 -142 57.5t-81 53.5q-46 38 -72.5 95t-26.5 118q0 131 95.5 214t246.5 83q149 0 240 -82q38 -33 60 -72t46 -111l-172 -59q-31 91 -67.5 125.5t-102.5 34.5 q-56 0 -90.5 -31.5t-34.5 -83.5t36.5 -81t158.5 -75q142 -56 199 -104q45 -39 70.5 -96t25.5 -119q0 -138 -104.5 -227.5t-266.5 -89.5q-172 0 -278 98q-41 38 -64.5 83t-42.5 122z" />
<glyph unicode="t" horiz-adv-x="663" d="M2 868v166h662v-166h-224v-868h-209v868h-229z" />
<glyph unicode="u" horiz-adv-x="942" d="M121 395v639h209v-639q0 -149 26 -192q38 -62 129 -62q96 0 131 74q19 45 19 184v635h186v-628q0 -137 -15 -205t-56 -115q-91 -104 -277 -104q-204 0 -289 114q-35 45 -49 112.5t-14 186.5z" />
<glyph unicode="v" horiz-adv-x="802" d="M16 1034h211l187 -782l186 782h186l-278 -1034h-215z" />
<glyph unicode="w" horiz-adv-x="1185" d="M31 1034h207l129 -733l145 733h182l144 -735l137 735h180l-223 -1036h-191l-147 723l-145 -723h-189z" />
<glyph unicode="x" horiz-adv-x="733" d="M-27 0l289 535l-258 499h229l142 -303l155 303h197l-252 -471l285 -563h-230l-168 369l-190 -369h-199z" />
<glyph unicode="y" horiz-adv-x="698" d="M-51 1034h223l186 -401l189 401h198l-299 -598v-436h-208v436z" />
<glyph unicode="z" horiz-adv-x="733" d="M29 0v145l442 734h-414v155h652v-127l-445 -741h455v-166h-690z" />
<glyph unicode="{" horiz-adv-x="663" d="M88 453v143q62 0 86 33q15 21 19 53t4 143v222q0 178 57.5 251.5t194.5 69.5l63 -2v-119q-44 -1 -66 -6.5t-36 -29t-17.5 -58.5t-3.5 -106v-218q0 -77 -2.5 -119.5t-8.5 -77.5t-21.5 -53t-35.5 -30t-57 -25q37 -13 57 -26t35.5 -31t21.5 -53t8.5 -77.5t2.5 -119.5v-240 q0 -71 3.5 -106.5t17.5 -59t36 -29t66 -5.5v-119q-25 -2 -63 -2q-138 0 -195 72t-57 249v244q0 111 -4 144t-19 53q-25 35 -86 35z" />
<glyph unicode="|" horiz-adv-x="1024" d="M408 -342v1708h208v-1708h-208z" />
<glyph unicode="}" horiz-adv-x="663" d="M150 -223q29 0 47 2t33 11t22 21t12 36.5t6.5 53.5t1.5 76v240q0 109 3.5 150.5t15.5 70.5q12 32 34 49.5t72 36.5q-52 19 -75 40t-35 61q-15 46 -15 204v218q0 131 -20.5 165t-101.5 35v119l63 2q137 4 194.5 -69.5t57.5 -251.5v-222q0 -115 3.5 -145.5t18.5 -50.5 q24 -33 86 -33v-143q-60 0 -86 -33q-15 -22 -18.5 -52.5t-3.5 -146.5v-244q0 -177 -57 -249t-195 -72q-38 0 -63 2v119z" />
<glyph unicode="~" horiz-adv-x="1366" d="M186 1247q30 64 52.5 103t57.5 79t80.5 59t104.5 19q73 0 221 -61q89 -36 122 -45.5t67 -9.5q54 0 88.5 25.5t77.5 94.5l121 -69q-38 -79 -66.5 -119t-67.5 -70q-81 -63 -180 -63q-39 0 -92 17t-201 75q-61 25 -106 25q-49 0 -85 -30.5t-77 -107.5z" />
<glyph unicode="&#xa1;" horiz-adv-x="559" d="M154 0l55 752h141l56 -752h-252zM178 827v207h201v-207h-201z" />
<glyph unicode="&#xa2;" d="M162 690q0 143 42 255t118 173q59 46 155 62v186h119v-186q118 -13 193 -101.5t92 -234.5l-174 -23q-9 83 -35.5 130t-79.5 73v-649q54 25 78.5 67.5t36.5 132.5l174 -22q-35 -302 -285 -340v-223h-119v223q-93 16 -147 57q-81 60 -124.5 169t-43.5 251zM362 698 q0 -134 28.5 -209t92.5 -110v639q-64 -34 -92.5 -108.5t-28.5 -211.5z" />
<glyph unicode="&#xa3;" d="M41 0v180h70q59 0 92.5 9t64.5 34q101 76 101 248q0 55 -15 166h-198v162h172q-23 142 -23 215q0 174 99 275.5t268 101.5q120 0 197 -52.5t126 -167.5l-159 -98q-31 77 -70 111.5t-96 34.5q-72 0 -110 -52.5t-38 -150.5q0 -41 21 -191q0 -1 0.5 -4t1.5 -9.5t2 -12.5h260 v-162h-240q8 -60 8 -107q0 -122 -37.5 -202t-129.5 -150h153q93 0 136 6.5t85 28.5q43 22 71.5 54t55.5 93l162 -84q-30 -81 -62.5 -128t-78.5 -80q-58 -41 -132 -54.5t-237 -13.5h-520z" />
<glyph unicode="&#xa4;" d="M90 1018l119 117l141 -142q84 47 172 47q93 0 176 -49l142 142l114 -115l-141 -141q49 -83 49 -175q0 -87 -49 -172l141 -141l-118 -119l-140 142q-84 -47 -174 -47q-87 0 -174 47l-139 -142l-117 115l141 141q-49 85 -49 176q0 88 47 172zM348 702q0 -70 51.5 -122 t120.5 -52q73 0 125.5 50.5t52.5 121.5q0 74 -51.5 125.5t-124.5 51.5q-72 0 -123 -51.5t-51 -123.5z" />
<glyph unicode="&#xa5;" d="M55 1366h230l252 -612l260 612h194l-252 -545h228v-125h-285l-61 -141h346v-125h-346v-430h-203v430h-322v125h320l-62 141h-258v125h203z" />
<glyph unicode="&#xa6;" horiz-adv-x="1024" d="M408 313h208v-655h-208v655zM408 670v696h208v-696h-208z" />
<glyph unicode="&#xa7;" d="M119 -43l184 33q23 -97 76 -141t147 -44q92 0 145.5 46.5t53.5 128.5q0 85 -61 133q-29 23 -66.5 41t-130.5 53q-92 35 -138.5 59.5t-84.5 57.5q-88 79 -88 208q0 91 38 157.5t125 127.5q-66 55 -94 114.5t-28 141.5q0 141 96.5 229.5t251.5 88.5q83 0 155.5 -25.5 t118.5 -69.5q32 -32 52 -69t40 -103l-172 -41q-26 86 -70.5 123t-119.5 37q-72 0 -115 -40.5t-43 -108.5q0 -35 15 -68t40 -53q24 -19 55 -34.5t120 -51.5q83 -33 126 -57t80 -58q84 -75 84 -207q0 -85 -32 -146t-113 -130q85 -59 121.5 -124t36.5 -159q0 -161 -111 -259.5 t-293 -98.5q-193 0 -301 108q-39 38 -60.5 82t-39.5 119zM338 582q0 -78 68 -125q49 -36 233 -105q94 76 94 166q0 96 -125 158q-2 1 -20 9t-60.5 27t-89.5 40q-55 -44 -77.5 -82t-22.5 -88z" />
<glyph unicode="&#xa8;" horiz-adv-x="1024" d="M242 1266q0 44 31 76t75 32q43 0 75 -31.5t32 -74.5q0 -44 -32.5 -75.5t-76.5 -31.5q-42 0 -73 31.5t-31 73.5zM563 1266q0 44 32 76t75 32q44 0 75 -31.5t31 -74.5q0 -44 -31 -75.5t-77 -31.5q-41 0 -73 32t-32 73z" />
<glyph unicode="&#xa9;" horiz-adv-x="1599" d="M86 682q0 144 56.5 275.5t152.5 226.5t228.5 151t277.5 56q146 0 277.5 -56.5t227 -151.5t151.5 -227t56 -278q0 -144 -57 -274.5t-154 -224t-231 -149t-283 -55.5q-140 0 -270 57t-224.5 152.5t-151 226t-56.5 271.5zM236 682q0 -153 75.5 -284.5t203.5 -209t276 -77.5 q118 0 224 44.5t182.5 120.5t121.5 181t45 221q0 158 -75.5 291t-205.5 209.5t-284 76.5q-153 0 -282.5 -76.5t-205 -208.5t-75.5 -288zM483 680q0 204 87 315t245 111q132 0 205.5 -71.5t95.5 -219.5l-162 -22q-13 101 -43 141.5t-92 40.5q-155 0 -155 -301 q0 -285 155 -285q58 0 88 39t47 137l160 -20q-40 -287 -301 -287q-158 0 -244 110t-86 312z" />
<glyph unicode="&#xaa;" horiz-adv-x="628" d="M43 715q0 109 83.5 165t246.5 56q10 0 20 -2v27q0 98 -82 98q-38 0 -59.5 -19.5t-30.5 -62.5l-155 16q43 181 253 181q137 0 195 -74q22 -28 29.5 -64.5t7.5 -113.5v-199q0 -127 16 -176h-133q-4 29 -10 94q-42 -59 -85 -84t-106 -25q-86 0 -138 50.5t-52 132.5zM207 725 q0 -38 19 -59t53 -21q55 0 84.5 44t29.5 126v16q-20 5 -37 5q-149 0 -149 -111z" />
<glyph unicode="&#xab;" horiz-adv-x="802" d="M90 526l193 320h116l-108 -320l108 -321h-116zM403 524l193 328h119l-109 -328l109 -327h-119z" />
<glyph unicode="&#xac;" horiz-adv-x="1024" d="M68 352v195h886v-547h-209v352h-677z" />
<glyph unicode="&#xad;" horiz-adv-x="593" d="M80 428v168h432v-168h-432z" />
<glyph unicode="&#xae;" horiz-adv-x="1599" d="M86 682q0 144 56.5 275.5t152.5 226.5t228.5 151t277.5 56q146 0 277.5 -56.5t227 -151.5t151.5 -227t56 -278q0 -144 -57 -274.5t-154 -224t-231 -149t-283 -55.5q-140 0 -270 57t-224.5 152.5t-151 226t-56.5 271.5zM236 682q0 -153 75.5 -284.5t203.5 -209t276 -77.5 q118 0 224 44.5t182.5 120.5t121.5 181t45 221q0 158 -75.5 291t-205.5 209.5t-284 76.5q-153 0 -282.5 -76.5t-205 -208.5t-75.5 -288zM524 272v820h277q135 0 200 -48q93 -68 93 -190q0 -150 -131 -215l167 -367h-186l-135 332h-113v-332h-172zM696 729h97q64 0 97.5 32.5 t33.5 92.5q0 113 -129 113h-99v-238z" />
<glyph unicode="&#xaf;" horiz-adv-x="1024" d="M233 1198v133h558v-133h-558z" />
<glyph unicode="&#xb0;" d="M205 1071q0 134 94 227t229 93q129 0 222.5 -94.5t93.5 -225.5q0 -132 -94 -225.5t-226 -93.5t-225.5 93.5t-93.5 225.5zM365 1071q0 -75 46.5 -129.5t112.5 -54.5t113 54t47 130q0 75 -47 129.5t-111 54.5q-67 0 -114 -53.5t-47 -130.5z" />
<glyph unicode="&#xb1;" d="M104 10v166h838v-166h-838zM104 600v166h332v336h174v-336h332v-166h-332v-326h-174v326h-332z" />
<glyph unicode="&#xb2;" horiz-adv-x="698" d="M45 1112q14 72 32.5 113t55.5 78q77 77 203 77q123 0 197.5 -67.5t74.5 -177.5q0 -77 -38 -145.5t-126 -147.5q-92 -83 -196 -152h366l-8 -143h-559v133q219 174 301 270t82 176q0 54 -28.5 86.5t-75.5 32.5q-54 0 -84 -39.5t-39 -124.5z" />
<glyph unicode="&#xb3;" horiz-adv-x="698" d="M29 768l151 33q15 -72 49.5 -104.5t94.5 -32.5q55 0 87.5 34t32.5 93q0 63 -37 91.5t-120 28.5h-68v119h68q46 0 66 4.5t38 18.5q37 30 37 86q0 54 -26.5 83t-77.5 29q-48 0 -76 -27t-47 -91l-148 30q32 112 100.5 164.5t184.5 52.5q121 0 191.5 -60t70.5 -163 q0 -64 -29 -105t-98 -73q152 -49 152 -199q0 -110 -81.5 -179t-213.5 -69q-149 0 -230 84q-28 28 -43.5 61.5t-27.5 90.5z" />
<glyph unicode="&#xb4;" horiz-adv-x="1024" d="M408 1217l337 258l101 -144l-367 -196z" />
<glyph unicode="&#xb5;" horiz-adv-x="942" d="M117 -342v1352h209v-486q0 -147 5.5 -207t22.5 -98q37 -76 113 -76q43 0 75.5 25.5t47.5 71.5q12 35 16 93.5t4 190.5v486h209v-1010h-192v152q-22 -95 -59 -136t-101 -41q-63 0 -99.5 41t-58.5 136v-494h-192z" />
<glyph unicode="&#xb6;" horiz-adv-x="1081" d="M51 971q0 114 42.5 206t115.5 136q46 29 106 41t164 12h445v-1708h-138v1571h-100v-1571h-137v913h-76q-122 0 -186.5 17.5t-116.5 64.5q-56 47 -87.5 132t-31.5 186z" />
<glyph unicode="&#xb7;" horiz-adv-x="489" d="M131 397v258h227v-258h-227z" />
<glyph unicode="&#xb8;" horiz-adv-x="1024" d="M348 -348l29 74q84 -37 149 -37q38 0 60 17t22 46q0 76 -129 76h-55l59 172h99l-33 -96h29q81 0 128.5 -40t47.5 -108q0 -74 -58 -121t-149 -47q-96 0 -199 64z" />
<glyph unicode="&#xb9;" horiz-adv-x="698" d="M152 1067v152q112 53 194 155h125v-702h141v-125h-456v125h149v495q-45 -39 -74 -58t-79 -42z" />
<glyph unicode="&#xba;" horiz-adv-x="628" d="M49 850q0 160 67.5 242t198.5 82q129 0 197 -83t68 -239q0 -157 -68.5 -239.5t-198.5 -82.5q-128 0 -196 82.5t-68 237.5zM219 852q0 -203 96 -203q95 0 95 203t-95 203q-96 0 -96 -203z" />
<glyph unicode="&#xbb;" horiz-adv-x="802" d="M90 197l109 327l-109 328h117l192 -328l-192 -327h-117zM403 197l109 327l-109 328h119l193 -328l-193 -327h-119z" />
<glyph unicode="&#xbc;" horiz-adv-x="1570" d="M135 1067v152q114 54 195 155h125v-702h141v-125h-457v125h150v495q-45 -39 -74.5 -58t-79.5 -42zM379 0l665 1366h146l-666 -1366h-145zM879 188v113l317 533h186v-519h107v-127h-107v-188h-168v188h-335zM1016 305h209v379z" />
<glyph unicode="&#xbd;" horiz-adv-x="1570" d="M113 1067v152q112 53 194 155h125v-702h141v-125h-456v125h149v495q-45 -39 -74 -58t-79 -42zM354 0l666 1366h145l-665 -1366h-146zM881 565q28 138 99 203.5t194 65.5q121 0 195.5 -68t74.5 -178q0 -77 -38 -145.5t-126 -147.5q-89 -81 -197 -152h367l-8 -143h-559v133 q220 177 301.5 272.5t81.5 174.5q0 54 -29 86t-76 32q-55 0 -84.5 -39t-38.5 -124z" />
<glyph unicode="&#xbe;" horiz-adv-x="1570" d="M61 768l152 33q15 -72 49 -104.5t94 -32.5q56 0 88.5 34.5t32.5 92.5q0 63 -37.5 91.5t-120.5 28.5h-67v119h67q46 0 66.5 4.5t38.5 18.5q37 30 37 86q0 54 -27 83t-78 29q-48 0 -76 -27t-47 -91l-147 30q32 112 100.5 164.5t184.5 52.5q121 0 191.5 -60t70.5 -163 q0 -64 -29 -105t-98 -73q151 -49 151 -199q0 -110 -81.5 -179t-213.5 -69q-148 0 -229 84q-51 51 -72 152zM418 0l667 1366h146l-666 -1366h-147zM891 188v113l317 533h187v-519h106v-127h-106v-188h-168v188h-336zM1028 305h209v379z" />
<glyph unicode="&#xbf;" horiz-adv-x="802" d="M100 266q0 85 36 147t126 132q60 47 76 76t16 88v45h172v-49q0 -109 -21.5 -154.5t-109.5 -120.5q-45 -39 -64.5 -77.5t-19.5 -90.5q0 -60 29 -92.5t82 -32.5q69 0 102 49t41 160l176 -33q-30 -331 -329 -331q-143 0 -227.5 77t-84.5 207zM342 831v203h197v-203h-197z " />
<glyph unicode="&#xc0;" horiz-adv-x="1011" d="M-8 0l395 1366h254l365 -1366h-230l-86 342h-399l-84 -342h-215zM166 1614l72 166l393 -195l-56 -98zM336 520h309l-153 625z" />
<glyph unicode="&#xc1;" horiz-adv-x="1011" d="M-8 0l395 1366h254l365 -1366h-230l-86 342h-399l-84 -342h-215zM336 520h309l-153 625zM395 1585l393 195l72 -166l-409 -127z" />
<glyph unicode="&#xc2;" horiz-adv-x="1011" d="M-8 0l395 1366h254l365 -1366h-230l-86 342h-399l-84 -342h-215zM152 1501l368 260l367 -260l-182 -14l-185 102l-186 -102zM336 520h309l-153 625z" />
<glyph unicode="&#xc3;" horiz-adv-x="1011" d="M-8 0l395 1366h254l365 -1366h-230l-86 342h-399l-84 -342h-215zM211 1563q51 78 102.5 113.5t114.5 35.5q54 0 137 -39q78 -37 117 -37q27 0 49 16.5t47 55.5l92 -59q-51 -79 -103.5 -115.5t-115.5 -36.5q-52 0 -137 39q-75 37 -113 37q-27 0 -48 -15t-52 -55zM336 520 h309l-153 625z" />
<glyph unicode="&#xc4;" horiz-adv-x="1011" d="M-8 0l395 1366h254l365 -1366h-230l-86 342h-399l-84 -342h-215zM244 1610q0 46 32 78t78 32q44 0 76.5 -32t32.5 -78q0 -44 -32.5 -76.5t-78.5 -32.5q-44 0 -76 32.5t-32 76.5zM336 520h309l-153 625zM571 1610q0 46 32.5 78t76.5 32q46 0 78.5 -32t32.5 -78 q0 -44 -32.5 -76.5t-78.5 -32.5q-44 0 -76.5 32.5t-32.5 76.5z" />
<glyph unicode="&#xc5;" horiz-adv-x="1011" d="M-8 0l395 1366h254l365 -1366h-230l-86 342h-399l-84 -342h-215zM328 1645q0 82 56 138t138 56q80 0 136.5 -56.5t56.5 -137.5q0 -79 -57.5 -136t-137.5 -57q-78 0 -135 57.5t-57 135.5zM336 520h309l-153 625zM432 1645q0 -37 26.5 -64t61.5 -27q37 0 63.5 27t26.5 64 q0 38 -26.5 65t-63.5 27q-36 0 -62 -27t-26 -65z" />
<glyph unicode="&#xc6;" horiz-adv-x="1429" d="M-84 0l621 1366h870v-180h-547v-393h430v-181h-430v-428h549v-184h-770v375h-354l-162 -375h-207zM354 549h287v672z" />
<glyph unicode="&#xc7;" horiz-adv-x="1081" d="M86 680q0 341 130 526t368 185q192 0 302 -115.5t142 -351.5l-211 -31q-18 150 -57 213q-58 98 -172 98q-262 0 -262 -532q0 -510 264 -510q97 0 149 68t78 229l209 -29q-28 -218 -138.5 -335t-293.5 -120l-27 -77h31q80 0 129 -41.5t49 -110.5q0 -75 -59.5 -123.5 t-151.5 -48.5q-51 0 -96.5 15t-106.5 51l29 77q87 -41 154 -41q37 0 58.5 17.5t21.5 46.5q0 48 -52 67q-27 11 -104 11q-17 0 -29 2l54 162q-119 24 -193 81q-103 78 -159 239.5t-56 377.5z" />
<glyph unicode="&#xc8;" horiz-adv-x="942" d="M131 0v1366h782v-180h-557v-393h437v-181h-437v-428h566v-184h-791zM176 1614l72 166l393 -195l-55 -98z" />
<glyph unicode="&#xc9;" horiz-adv-x="942" d="M131 0v1366h782v-180h-557v-393h437v-181h-437v-428h566v-184h-791zM418 1585l393 195l72 -166l-410 -127z" />
<glyph unicode="&#xca;" horiz-adv-x="942" d="M131 0v1366h782v-180h-557v-393h437v-181h-437v-428h566v-184h-791zM164 1501l368 260l367 -260l-182 -14l-185 102l-186 -102z" />
<glyph unicode="&#xcb;" horiz-adv-x="942" d="M131 0v1366h782v-180h-557v-393h437v-181h-437v-428h566v-184h-791zM260 1610q0 46 32.5 78t78.5 32q44 0 76 -32t32 -78q0 -44 -32.5 -76.5t-77.5 -32.5q-44 0 -76.5 32.5t-32.5 76.5zM588 1610q0 46 32 78t76 32q46 0 78.5 -32t32.5 -78q0 -44 -32.5 -76.5t-78.5 -32.5 q-44 0 -76 32.5t-32 76.5z" />
<glyph unicode="&#xcc;" horiz-adv-x="489" d="M-96 1622l71 158l365 -201l-53 -92zM131 0v1366h225v-1366h-225z" />
<glyph unicode="&#xcd;" horiz-adv-x="489" d="M131 0v1366h225v-1366h-225zM150 1579l364 201l72 -158l-383 -135z" />
<glyph unicode="&#xce;" horiz-adv-x="489" d="M-70 1501l320 260l321 -260l-176 -14l-145 102l-144 -102zM131 0v1366h225v-1366h-225z" />
<glyph unicode="&#xcf;" horiz-adv-x="489" d="M6 1608q0 44 31 75t74 31t73.5 -30.5t30.5 -73.5t-30.5 -74t-73.5 -31t-74 31t-31 72zM131 0v1366h225v-1366h-225zM293 1610q0 43 30.5 73.5t73.5 30.5t74 -30.5t31 -73.5t-31.5 -74t-75.5 -31q-41 0 -71.5 31t-30.5 74z" />
<glyph unicode="&#xd0;" horiz-adv-x="1150" d="M-6 627v153h137v586h307q255 0 398 -104q109 -79 169 -229t60 -339q0 -209 -72.5 -370.5t-201.5 -243.5q-125 -80 -336 -80h-324v627h-137zM356 180h95q374 0 374 504q0 248 -94 375t-280 127h-95v-406h238v-153h-238v-447z" />
<glyph unicode="&#xd1;" horiz-adv-x="1150" d="M123 0v1366h266l449 -985v985h188v-1366h-211l-504 1094v-1094h-188zM307 1563q51 78 102.5 113.5t114.5 35.5q55 0 138 -39q78 -37 116 -37q27 0 49 16.5t47 55.5l93 -59q-51 -79 -103.5 -115.5t-115.5 -36.5q-53 0 -138 39q-75 37 -112 37q-27 0 -48.5 -15t-52.5 -55z " />
<glyph unicode="&#xd2;" horiz-adv-x="1150" d="M86 678q0 352 126.5 532.5t373.5 180.5q233 0 357 -182.5t124 -526.5q0 -346 -124.5 -526.5t-362.5 -180.5q-239 0 -366.5 181t-127.5 522zM223 1614l72 166l393 -195l-55 -98zM324 684q0 -267 61 -394.5t190 -127.5q76 0 125.5 37.5t79.5 119.5q49 126 49 365 q0 263 -61.5 391.5t-187.5 128.5q-132 0 -194 -126.5t-62 -393.5z" />
<glyph unicode="&#xd3;" horiz-adv-x="1150" d="M86 678q0 352 126.5 532.5t373.5 180.5q233 0 357 -182.5t124 -526.5q0 -346 -124.5 -526.5t-362.5 -180.5q-239 0 -366.5 181t-127.5 522zM324 684q0 -267 61 -394.5t190 -127.5q76 0 125.5 37.5t79.5 119.5q49 126 49 365q0 263 -61.5 391.5t-187.5 128.5 q-132 0 -194 -126.5t-62 -393.5zM479 1585l393 195l72 -166l-409 -127z" />
<glyph unicode="&#xd4;" horiz-adv-x="1150" d="M86 678q0 352 126.5 532.5t373.5 180.5q233 0 357 -182.5t124 -526.5q0 -346 -124.5 -526.5t-362.5 -180.5q-239 0 -366.5 181t-127.5 522zM221 1501l369 260l366 -260l-182 -14l-184 102l-187 -102zM324 684q0 -267 61 -394.5t190 -127.5q76 0 125.5 37.5t79.5 119.5 q49 126 49 365q0 263 -61.5 391.5t-187.5 128.5q-132 0 -194 -126.5t-62 -393.5z" />
<glyph unicode="&#xd5;" horiz-adv-x="1150" d="M86 678q0 352 126.5 532.5t373.5 180.5q233 0 357 -182.5t124 -526.5q0 -346 -124.5 -526.5t-362.5 -180.5q-239 0 -366.5 181t-127.5 522zM289 1563q51 78 102.5 113.5t114.5 35.5q54 0 137 -39q78 -37 117 -37q27 0 49 16.5t47 55.5l92 -59q-51 -79 -103.5 -115.5 t-115.5 -36.5q-52 0 -137 39q-75 37 -113 37q-27 0 -48 -15t-52 -55zM324 684q0 -267 61 -394.5t190 -127.5q76 0 125.5 37.5t79.5 119.5q49 126 49 365q0 263 -61.5 391.5t-187.5 128.5q-132 0 -194 -126.5t-62 -393.5z" />
<glyph unicode="&#xd6;" horiz-adv-x="1150" d="M86 678q0 352 126.5 532.5t373.5 180.5q233 0 357 -182.5t124 -526.5q0 -346 -124.5 -526.5t-362.5 -180.5q-239 0 -366.5 181t-127.5 522zM313 1610q0 46 32.5 78t78.5 32q44 0 76 -32t32 -78q0 -44 -32 -76.5t-78 -32.5q-44 0 -76.5 32.5t-32.5 76.5zM324 684 q0 -267 61 -394.5t190 -127.5q76 0 125.5 37.5t79.5 119.5q49 126 49 365q0 263 -61.5 391.5t-187.5 128.5q-132 0 -194 -126.5t-62 -393.5zM641 1610q0 46 32.5 78t76.5 32q46 0 78 -32t32 -78q0 -44 -32 -76.5t-78 -32.5q-44 0 -76.5 32.5t-32.5 76.5z" />
<glyph unicode="&#xd7;" d="M152 432l249 250l-249 248l122 125l250 -250l250 250l123 -125l-250 -248l250 -250l-123 -123l-250 250l-250 -250z" />
<glyph unicode="&#xd8;" horiz-adv-x="1150" d="M90 684q0 344 124.5 525.5t360.5 181.5q143 0 259 -74l63 123h129l-104 -209q72 -98 105.5 -230.5t33.5 -318.5q0 -344 -123 -525.5t-358 -181.5q-130 0 -252 68l-66 -127h-129l105 209q-148 197 -148 559zM307 672q0 -201 43 -348l389 835q-35 30 -71 42.5t-88 12.5 q-143 0 -208 -129t-65 -413zM420 199q67 -47 153 -47q140 0 205.5 128.5t65.5 403.5q0 215 -37 342z" />
<glyph unicode="&#xd9;" horiz-adv-x="1116" d="M121 518v848h221v-848q0 -121 8 -176t31 -92q56 -88 192 -88q144 0 191 106q17 35 23 86t6 168v844h202v-834q0 -181 -18.5 -269t-69.5 -150q-111 -138 -348 -138q-257 0 -364 150q-40 59 -57 148.5t-17 244.5zM199 1614l71 166l394 -195l-56 -98z" />
<glyph unicode="&#xda;" horiz-adv-x="1116" d="M121 518v848h221v-848q0 -121 8 -176t31 -92q56 -88 192 -88q144 0 191 106q17 35 23 86t6 168v844h202v-834q0 -181 -18.5 -269t-69.5 -150q-111 -138 -348 -138q-257 0 -364 150q-40 59 -57 148.5t-17 244.5zM467 1585l393 195l72 -166l-410 -127z" />
<glyph unicode="&#xdb;" horiz-adv-x="1116" d="M121 518v848h221v-848q0 -121 8 -176t31 -92q56 -88 192 -88q144 0 191 106q17 35 23 86t6 168v844h202v-834q0 -181 -18.5 -269t-69.5 -150q-111 -138 -348 -138q-257 0 -364 150q-40 59 -57 148.5t-17 244.5zM197 1501l368 260l367 -260l-182 -14l-185 102l-186 -102z " />
<glyph unicode="&#xdc;" horiz-adv-x="1116" d="M121 518v848h221v-848q0 -121 8 -176t31 -92q56 -88 192 -88q144 0 191 106q17 35 23 86t6 168v844h202v-834q0 -181 -18.5 -269t-69.5 -150q-111 -138 -348 -138q-257 0 -364 150q-40 59 -57 148.5t-17 244.5zM287 1610q0 46 32 78t78 32q45 0 77 -32t32 -78 q0 -44 -32.5 -76.5t-78.5 -32.5q-44 0 -76 32.5t-32 76.5zM614 1610q0 46 32 78t77 32q46 0 78.5 -32t32.5 -78q0 -44 -32.5 -76.5t-78.5 -32.5q-44 0 -76.5 32.5t-32.5 76.5z" />
<glyph unicode="&#xdd;" horiz-adv-x="837" d="M-66 1366h246l250 -569l256 569h215l-379 -788v-578h-225v578zM322 1585l393 195l71 -166l-409 -127z" />
<glyph unicode="&#xde;" horiz-adv-x="1011" d="M131 0v1366h225v-213h113q132 0 209.5 -16t134.5 -56q74 -53 116 -143.5t42 -200.5q0 -119 -44 -211t-126 -141q-60 -37 -128.5 -50t-199.5 -13h-117v-322h-225zM356 502h113q150 0 201 51q63 60 63 188q0 137 -80 201q-29 23 -64 30t-120 7h-113v-477z" />
<glyph unicode="&#xdf;" horiz-adv-x="1744" d="M49 285l180 49q20 -98 68 -143.5t131 -45.5q72 0 114 35.5t42 95.5q0 54 -36.5 88t-131.5 68q-102 37 -142 57.5t-81 53.5q-46 38 -72.5 95t-26.5 118q0 131 95.5 214t246.5 83q149 0 240 -82q38 -33 60 -72t46 -111l-172 -59q-31 91 -67.5 125.5t-102.5 34.5 q-56 0 -90.5 -31.5t-34.5 -83.5t36.5 -81t158.5 -75q142 -56 199 -104q45 -39 70.5 -96t25.5 -119q0 -138 -104.5 -227.5t-266.5 -89.5q-172 0 -278 98q-41 38 -64.5 83t-42.5 122zM922 285l180 49q20 -98 67.5 -143.5t130.5 -45.5q72 0 114 35.5t42 95.5q0 54 -36.5 88 t-131.5 68q-103 38 -143.5 58t-79.5 53q-47 38 -73.5 94.5t-26.5 118.5q0 131 95.5 214t246.5 83q147 0 241 -82q38 -33 61 -72.5t46 -110.5l-172 -59q-31 90 -68 125t-102 35q-57 0 -92 -31.5t-35 -83.5t36 -81t158 -75q144 -56 199 -104q46 -38 72 -95t26 -120 q0 -138 -104 -227.5t-266 -89.5q-173 0 -279 98q-41 38 -64 83t-42 122z" />
<glyph unicode="&#xe0;" horiz-adv-x="837" d="M8 0l307 1034h224l284 -1034h-209l-65 252h-281l-65 -252h-195zM90 1331l98 144l340 -258l-71 -82zM307 408h209l-104 413z" />
<glyph unicode="&#xe1;" horiz-adv-x="837" d="M8 0l307 1034h224l284 -1034h-209l-65 252h-281l-65 -252h-195zM307 408h209l-104 413zM328 1217l338 258l100 -144l-367 -196z" />
<glyph unicode="&#xe2;" horiz-adv-x="837" d="M8 0l307 1034h224l284 -1034h-209l-65 252h-281l-65 -252h-195zM80 1153l360 270l361 -270l-180 -14l-181 118l-182 -118zM307 408h209l-104 413z" />
<glyph unicode="&#xe3;" horiz-adv-x="837" d="M8 0l307 1034h224l284 -1034h-209l-65 252h-281l-65 -252h-195zM139 1225q49 81 98 117t109 36q52 0 129 -43q75 -41 115 -41q25 0 45 16.5t45 57.5l88 -57q-51 -80 -100 -116t-109 -36q-55 0 -131 45q-69 39 -106 39q-27 0 -47.5 -16t-49.5 -60zM307 408h209l-104 413z " />
<glyph unicode="&#xe4;" horiz-adv-x="837" d="M8 0l307 1034h224l284 -1034h-209l-65 252h-281l-65 -252h-195zM162 1266q0 44 31 76t75 32q43 0 75 -31.5t32 -74.5q0 -44 -32.5 -75.5t-76.5 -31.5q-42 0 -73 31.5t-31 73.5zM307 408h209l-104 413zM483 1266q0 44 32 76t75 32q44 0 75 -31.5t31 -74.5q0 -44 -31 -75.5 t-77 -31.5q-41 0 -73 32t-32 73z" />
<glyph unicode="&#xe5;" horiz-adv-x="837" d="M8 0l307 1034h224l284 -1034h-209l-65 252h-281l-65 -252h-195zM242 1303q0 78 55.5 134t134.5 56q78 0 133.5 -55.5t55.5 -134.5q0 -78 -56.5 -133.5t-136.5 -55.5q-75 0 -130.5 56.5t-55.5 132.5zM307 408h209l-104 413zM344 1303q0 -36 25.5 -62.5t60.5 -26.5 q37 0 62.5 26t25.5 63t-25.5 63.5t-62.5 26.5q-35 0 -60.5 -26.5t-25.5 -63.5z" />
<glyph unicode="&#xe6;" horiz-adv-x="1185" d="M-43 0l483 1034h693v-155h-404v-269h313v-155h-313v-299h406v-156h-615v276h-246l-122 -276h-195zM334 434h194v440z" />
<glyph unicode="&#xe7;" horiz-adv-x="907" d="M84 514q0 258 109.5 398.5t310.5 140.5q156 0 244 -90.5t114 -278.5l-196 -27q-12 121 -50.5 176.5t-109.5 55.5q-97 0 -149 -96t-52 -275q0 -178 51.5 -276.5t143.5 -98.5q71 0 111 52.5t57 169.5l194 -23q-41 -345 -350 -360l-27 -80q12 2 29 2q81 0 128.5 -40 t47.5 -108q0 -74 -58 -121t-149 -47q-95 0 -198 64l28 74q84 -37 150 -37q38 0 60 17t22 46q0 76 -129 76q-15 0 -56 -2l56 162q-332 68 -332 526z" />
<glyph unicode="&#xe8;" horiz-adv-x="802" d="M90 1331l98 144l340 -258l-71 -82zM123 0v1034h620v-155h-411v-269h321v-155h-321v-299h418v-156h-627z" />
<glyph unicode="&#xe9;" horiz-adv-x="802" d="M123 0v1034h620v-155h-411v-269h321v-155h-321v-299h420v-156h-629zM338 1217l338 258l100 -144l-366 -196z" />
<glyph unicode="&#xea;" horiz-adv-x="802" d="M82 1153l360 270l361 -270l-180 -14l-181 118l-182 -118zM123 0v1034h620v-155h-411v-269h321v-155h-321v-299h418v-156h-627z" />
<glyph unicode="&#xeb;" horiz-adv-x="802" d="M123 0v1034h620v-155h-411v-269h321v-155h-321v-299h420v-156h-629zM180 1266q0 44 31.5 76t75.5 32q43 0 74.5 -31.5t31.5 -74.5q0 -44 -32 -75.5t-76 -31.5q-42 0 -73.5 31.5t-31.5 73.5zM502 1266q0 44 31.5 76t74.5 32q44 0 75.5 -31.5t31.5 -74.5q0 -44 -31.5 -75.5 t-77.5 -31.5q-41 0 -72.5 32t-31.5 73z" />
<glyph unicode="&#xec;" horiz-adv-x="454" d="M-92 1331l98 144l313 -258l-71 -82zM123 0v1034h209v-1034h-209z" />
<glyph unicode="&#xed;" horiz-adv-x="454" d="M123 0v1034h209v-1034h-209zM135 1217l314 258l98 -144l-340 -196z" />
<glyph unicode="&#xee;" horiz-adv-x="452" d="M-78 1153l311 270l314 -270l-172 -14l-142 118l-139 -118zM123 0v1034h209v-1034h-209z" />
<glyph unicode="&#xef;" horiz-adv-x="452" d="M-23 1266q0 44 31.5 76t75.5 32q43 0 74.5 -31.5t31.5 -74.5q0 -44 -32 -75.5t-76 -31.5q-42 0 -73.5 31.5t-31.5 73.5zM123 0v1034h209v-1034h-209zM270 1266q0 44 32 76t75 32q44 0 75 -31.5t31 -74.5q0 -44 -31.5 -75.5t-76.5 -31.5q-41 0 -73 32t-32 73z" />
<glyph unicode="&#xf0;" horiz-adv-x="976" d="M10 467v133h111v434h268q246 0 375 -129.5t129 -376.5q0 -161 -59.5 -284t-165.5 -185q-106 -59 -267 -59h-280v467h-111zM330 156h67q135 0 205 92t70 270q0 175 -71 268t-204 93h-67v-279h209v-133h-209v-311z" />
<glyph unicode="&#xf1;" horiz-adv-x="942" d="M106 0v1034h238l313 -684v684h181v-1034h-199l-354 764v-764h-179zM193 1225q49 82 97.5 117.5t108.5 35.5q52 0 129 -43q75 -41 115 -41q25 0 45 16.5t45 57.5l88 -57q-51 -80 -100 -116t-109 -36q-55 0 -131 45q-69 39 -106 39q-26 0 -46.5 -16t-49.5 -60z" />
<glyph unicode="&#xf2;" horiz-adv-x="976" d="M84 514q0 264 104.5 401.5t305.5 137.5q192 0 294.5 -138.5t102.5 -398.5q0 -261 -103.5 -397.5t-298.5 -136.5q-196 0 -300.5 137t-104.5 395zM152 1331l98 144l340 -258l-72 -82zM305 518q0 -193 44.5 -285t137.5 -92q94 0 138.5 92t44.5 285q0 375 -181 375 q-95 0 -139.5 -91t-44.5 -284z" />
<glyph unicode="&#xf3;" horiz-adv-x="976" d="M84 514q0 264 104.5 401.5t305.5 137.5q192 0 294.5 -138.5t102.5 -398.5q0 -261 -103.5 -397.5t-298.5 -136.5q-196 0 -300.5 137t-104.5 395zM305 518q0 -193 44.5 -285t137.5 -92q94 0 138.5 92t44.5 285q0 375 -181 375q-95 0 -139.5 -91t-44.5 -284zM403 1217 l338 258l101 -144l-367 -196z" />
<glyph unicode="&#xf4;" horiz-adv-x="976" d="M84 514q0 264 104.5 401.5t305.5 137.5q192 0 294.5 -138.5t102.5 -398.5q0 -261 -103.5 -397.5t-298.5 -136.5q-196 0 -300.5 137t-104.5 395zM141 1153l361 270l360 -270l-180 -14l-180 118l-183 -118zM305 518q0 -193 44.5 -285t137.5 -92q94 0 138.5 92t44.5 285 q0 375 -181 375q-95 0 -139.5 -91t-44.5 -284z" />
<glyph unicode="&#xf5;" horiz-adv-x="976" d="M84 514q0 264 104.5 401.5t305.5 137.5q192 0 294.5 -138.5t102.5 -398.5q0 -261 -103.5 -397.5t-298.5 -136.5q-196 0 -300.5 137t-104.5 395zM207 1225q49 81 98 117t109 36q52 0 129 -43q75 -41 114 -41q25 0 46 16.5t45 57.5l88 -57q-51 -80 -100 -116t-109 -36 q-55 0 -131 45q-69 39 -107 39q-26 0 -46.5 -16t-49.5 -60zM305 518q0 -193 44.5 -285t137.5 -92q94 0 138.5 92t44.5 285q0 375 -181 375q-95 0 -139.5 -91t-44.5 -284z" />
<glyph unicode="&#xf6;" horiz-adv-x="976" d="M84 514q0 264 104.5 401.5t305.5 137.5q192 0 294.5 -138.5t102.5 -398.5q0 -261 -103.5 -397.5t-298.5 -136.5q-196 0 -300.5 137t-104.5 395zM238 1266q0 44 31 76t75 32q43 0 75 -31.5t32 -74.5q0 -44 -32.5 -75.5t-76.5 -31.5q-42 0 -73 31.5t-31 73.5zM305 518 q0 -193 44.5 -285t137.5 -92q94 0 138.5 92t44.5 285q0 375 -181 375q-95 0 -139.5 -91t-44.5 -284zM559 1266q0 44 32 76t75 32q44 0 75 -31.5t31 -74.5q0 -44 -31 -75.5t-77 -31.5q-41 0 -73 32t-32 73z" />
<glyph unicode="&#xf7;" d="M104 600v166h838v-166h-838zM422 270v228h203v-228h-203zM422 868v228h203v-228h-203z" />
<glyph unicode="&#xf8;" horiz-adv-x="976" d="M84 526q0 252 104.5 389.5t296.5 137.5q109 0 197 -49l45 86h121l-84 -162q66 -75 96.5 -175.5t30.5 -244.5q0 -253 -104 -389.5t-298 -136.5q-51 0 -88.5 9.5t-99.5 37.5l-45 -92h-123l84 163q-69 73 -101 176t-32 250zM285 494q0 -114 34 -207l279 577q-45 29 -104 29 q-107 0 -158 -97.5t-51 -301.5zM383 164q45 -23 98 -23q209 0 209 379q0 95 -26 230z" />
<glyph unicode="&#xf9;" horiz-adv-x="942" d="M121 395v639h209v-639q0 -149 26 -192q38 -62 129 -62q96 0 131 74q19 45 19 184v635h186v-628q0 -137 -15 -205t-56 -115q-91 -104 -277 -104q-204 0 -289 114q-35 45 -49 112.5t-14 186.5zM129 1331l98 144l340 -258l-71 -82z" />
<glyph unicode="&#xfa;" horiz-adv-x="942" d="M121 395v639h209v-639q0 -149 26 -192q38 -62 129 -62q96 0 131 74q19 45 19 184v635h186v-628q0 -137 -15 -205t-56 -115q-91 -104 -277 -104q-204 0 -289 114q-35 45 -49 112.5t-14 186.5zM393 1217l338 258l100 -144l-366 -196z" />
<glyph unicode="&#xfb;" horiz-adv-x="942" d="M123 395v639h209v-639q0 -149 26 -192q38 -62 129 -62q96 0 131 74q19 45 19 184v635h186v-628q0 -137 -15 -205t-56 -115q-91 -104 -277 -104q-204 0 -289 114q-35 45 -49 112.5t-14 186.5zM125 1153l360 270l361 -270l-180 -14l-181 118l-182 -118z" />
<glyph unicode="&#xfc;" horiz-adv-x="942" d="M121 395v639h209v-639q0 -149 26 -192q38 -62 129 -62q96 0 131 74q19 45 19 184v635h186v-628q0 -137 -15 -205t-56 -115q-91 -104 -277 -104q-204 0 -289 114q-35 45 -49 112.5t-14 186.5zM201 1266q0 44 31 76t75 32q43 0 75 -31.5t32 -74.5q0 -44 -32.5 -75.5 t-76.5 -31.5q-42 0 -73 31.5t-31 73.5zM522 1266q0 44 32 76t75 32q44 0 75 -31.5t31 -74.5q0 -44 -31.5 -75.5t-76.5 -31.5q-41 0 -73 32t-32 73z" />
<glyph unicode="&#xfd;" horiz-adv-x="698" d="M-51 1034h223l186 -401l189 401h198l-299 -598v-436h-208v436zM272 1217l338 258l101 -144l-367 -196z" />
<glyph unicode="&#xfe;" horiz-adv-x="837" d="M123 0v1034h209v-155h71q101 0 163 -12.5t106 -41.5q60 -41 93.5 -110.5t33.5 -155.5q0 -92 -35.5 -163t-101.5 -109q-46 -28 -101 -38.5t-153 -10.5h-76v-238h-209zM332 397h71q97 0 136 36.5t39 127.5q0 94 -52 137q-19 17 -40.5 22t-82.5 5h-71v-328z" />
<glyph unicode="&#xff;" horiz-adv-x="698" d="M-51 1034h223l186 -401l189 401h198l-299 -598v-436h-208v436zM86 1266q0 44 31.5 76t75.5 32q43 0 74.5 -31.5t31.5 -74.5q0 -44 -32.5 -75.5t-76.5 -31.5q-42 0 -73 31.5t-31 73.5zM408 1266q0 44 31.5 76t74.5 32q44 0 75.5 -31.5t31.5 -74.5q0 -44 -31.5 -75.5 t-77.5 -31.5q-41 0 -72.5 32t-31.5 73z" />
<glyph unicode="&#x152;" horiz-adv-x="1640" d="M86 680q0 195 46 346.5t132 239.5q57 57 142.5 91t171.5 34t147.5 -32t118.5 -106v113h772v-180h-567v-393h446v-181h-446v-428h571v-184h-784v125q-55 -84 -114.5 -118t-152.5 -34q-78 0 -153 29t-131 80q-199 181 -199 598zM326 653q0 -493 272 -493q166 0 233 186v694 q-44 90 -97.5 127t-137.5 37q-127 0 -184 -94q-86 -139 -86 -457z" />
<glyph unicode="&#x153;" horiz-adv-x="1325" d="M82 514q0 298 141 442q44 46 104.5 72.5t121.5 26.5q141 0 208 -125v104h613v-155h-414v-269h322v-155h-322v-299h418v-156h-623v109q-40 -69 -87.5 -98t-119.5 -29q-120 0 -208 79q-154 136 -154 453zM303 500q0 -361 184 -361q60 0 97.5 39t62.5 125v440 q-31 85 -67 118.5t-97 33.5q-92 0 -136 -97t-44 -298z" />
<glyph unicode="&#x178;" horiz-adv-x="837" d="M-66 1366h246l250 -569l256 569h215l-379 -788v-578h-225v578zM162 1610q0 46 32 78t78 32q44 0 76.5 -32t32.5 -78q0 -44 -32.5 -76.5t-78.5 -32.5q-44 0 -76 32.5t-32 76.5zM489 1610q0 46 32.5 78t76.5 32q46 0 78.5 -32t32.5 -78q0 -44 -32.5 -76.5t-78.5 -32.5 q-44 0 -76.5 32.5t-32.5 76.5z" />
<glyph unicode="&#x2c6;" horiz-adv-x="1024" d="M152 1153l360 270l360 -270l-180 -14l-180 118l-182 -118z" />
<glyph unicode="&#x2dc;" horiz-adv-x="1024" d="M199 1225q49 81 98 117t109 36q52 0 129 -43q75 -41 114 -41q25 0 45 16.5t45 57.5l88 -57q-51 -80 -100 -116t-109 -36q-55 0 -131 45q-69 39 -106 39q-26 0 -46.5 -16t-49.5 -60z" />
<glyph unicode="&#x2000;" horiz-adv-x="919" />
<glyph unicode="&#x2001;" horiz-adv-x="1839" />
<glyph unicode="&#x2002;" horiz-adv-x="919" />
<glyph unicode="&#x2003;" horiz-adv-x="1839" />
<glyph unicode="&#x2004;" horiz-adv-x="613" />
<glyph unicode="&#x2005;" horiz-adv-x="459" />
<glyph unicode="&#x2006;" horiz-adv-x="306" />
<glyph unicode="&#x2007;" horiz-adv-x="306" />
<glyph unicode="&#x2008;" horiz-adv-x="229" />
<glyph unicode="&#x2009;" horiz-adv-x="367" />
<glyph unicode="&#x200a;" horiz-adv-x="102" />
<glyph unicode="&#x2010;" horiz-adv-x="593" d="M80 428v168h432v-168h-432z" />
<glyph unicode="&#x2011;" horiz-adv-x="593" d="M80 428v168h432v-168h-432z" />
<glyph unicode="&#x2012;" horiz-adv-x="593" d="M80 428v168h432v-168h-432z" />
<glyph unicode="&#x2013;" horiz-adv-x="837" d="M66 432v162h706v-162h-706z" />
<glyph unicode="&#x2014;" horiz-adv-x="1290" d="M63 432v162h1166v-162h-1166z" />
<glyph unicode="&#x2018;" horiz-adv-x="454" d="M109 885v248l137 256h100l-117 -250h97v-254h-217z" />
<glyph unicode="&#x2019;" horiz-adv-x="454" d="M109 862l116 250h-96v254h217v-248l-137 -256h-100z" />
<glyph unicode="&#x201a;" horiz-adv-x="454" d="M109 -250l116 250h-96v254h217v-248l-137 -256h-100z" />
<glyph unicode="&#x201c;" horiz-adv-x="768" d="M111 885v248l137 256h100l-117 -250h97v-254h-217zM418 885v248l137 256h100l-116 -250h96v-254h-217z" />
<glyph unicode="&#x201d;" horiz-adv-x="768" d="M111 862l116 250h-96v254h217v-248l-137 -256h-100zM418 862l117 250h-97v254h217v-248l-137 -256h-100z" />
<glyph unicode="&#x201e;" horiz-adv-x="768" d="M111 -250l116 250h-96v254h217v-248l-137 -256h-100zM418 -250l117 250h-97v254h217v-248l-137 -256h-100z" />
<glyph unicode="&#x2022;" horiz-adv-x="1366" d="M401 692q0 120 83.5 202.5t205.5 82.5q114 0 196.5 -83.5t82.5 -199.5q0 -118 -83 -201t-200 -83t-201 82.5t-84 199.5z" />
<glyph unicode="&#x2026;" horiz-adv-x="1466" d="M131 0v258h227v-258h-227zM621 0v258h227v-258h-227zM1110 0v258h227v-258h-227z" />
<glyph unicode="&#x202f;" horiz-adv-x="367" />
<glyph unicode="&#x2039;" horiz-adv-x="489" d="M90 524l193 328h116l-108 -328l108 -327h-116z" />
<glyph unicode="&#x203a;" horiz-adv-x="489" d="M90 197l109 327l-109 328h117l192 -328l-192 -327h-117z" />
<glyph unicode="&#x205f;" horiz-adv-x="459" />
<glyph unicode="&#x20ac;" horiz-adv-x="1083" d="M76 317l69 162h86v80h-155l69 162h109q40 164 140 248t257 84t245 -90.5t114 -278.5l-197 -25q-14 120 -52 175t-108 55q-64 0 -107 -40.5t-71 -127.5h262l-69 -162h-215v-80h182l-70 -162h-92q52 -172 172 -172q72 0 112.5 52.5t57.5 169.5l195 -25q-52 -360 -369 -360 q-154 0 -253 85.5t-136 249.5h-176z" />
<glyph unicode="&#x2122;" horiz-adv-x="1464" d="M31 1204v121h499v-121h-176v-657h-151v657h-172zM592 547v778h223l143 -559l152 559h217v-778h-141v653l-178 -653h-121l-168 655v-655h-127z" />
<glyph unicode="&#xfb01;" horiz-adv-x="1185" d="M123 0v1034h604v-155h-395v-285h313v-156h-313v-438h-209zM856 0v1034h209v-1034h-209z" />
<glyph unicode="&#xfb02;" horiz-adv-x="1394" d="M123 0v1034h604v-155h-395v-285h313v-156h-313v-438h-209zM856 0v1034h209v-868h358v-166h-567z" />
</font>
</defs>
</svg>
