<?xml version="1.0" encoding="utf-8"?>
<!-- Generator: Adobe Illustrator 16.0.4, SVG Export Plug-In . SVG Version: 6.00 Build 0)  -->
<!DOCTYPE svg PUBLIC "-//W3C//DTD SVG 1.1 Basic//EN" "http://www.w3.org/Graphics/SVG/1.1/DTD/svg11-basic.dtd">
<svg version="1.1" baseProfile="basic" id="Layer_1"
	 xmlns="http://www.w3.org/2000/svg" xmlns:xlink="http://www.w3.org/1999/xlink" x="0px" y="0px" width="526.406px"
	 height="105.162px" viewBox="0 0 526.406 105.162" xml:space="preserve">
<g>
	<path d="M91.01,83.691H67.098v-59.78h-0.242l-15.25,59.78H35.258L19.52,23.912h-0.244v59.78H0V0h33.551l11.955,44.407h0.244
		L57.217,0H91.01V83.691z"/>
	<path d="M161.08,62.828c-3.781,15.129-17.201,22.084-31.963,22.084c-9.15,0-18.055-1.953-25.131-8.174
		c-6.711-5.979-10.248-14.52-10.127-23.426c-0.121-8.417,3.172-17.567,9.029-23.545c6.344-6.588,15.859-9.638,24.766-9.638
		c20.738,0,33.426,13.419,33.426,33.915v3.293h-41.844c0,6.711,2.195,11.592,9.516,11.592c5.488,0,8.539-2.197,9.516-7.566
		L161.08,62.828z M136.682,45.139c0-6.1-1.953-10.736-8.785-10.736c-6.344,0-8.66,5.002-8.66,10.736H136.682z"/>
	<path d="M188.117,83.691h-24.156V0h24.156V83.691z"/>
	<path d="M216.42,83.691h-24.156V0h24.156V83.691z"/>
	<path d="M286.482,62.828c-3.781,15.129-17.201,22.084-31.963,22.084c-9.15,0-18.057-1.953-25.131-8.174
		c-6.711-5.979-10.248-14.52-10.127-23.426c-0.121-8.417,3.172-17.567,9.029-23.545c6.342-6.588,15.859-9.638,24.764-9.638
		c20.74,0,33.428,13.419,33.428,33.915v3.293h-41.844c0,6.711,2.195,11.592,9.514,11.592c5.49,0,8.541-2.197,9.518-7.566
		L286.482,62.828z M262.082,45.139c0-6.1-1.951-10.736-8.783-10.736c-6.344,0-8.66,5.002-8.66,10.736H262.082z"/>
	<path d="M289.736,21.35h22.814v8.784h0.244c2.928-7.076,10.125-10.004,17.689-10.004c5.855,0,12.564,1.708,16.225,6.466
		c3.904,5.124,3.904,12.2,3.904,18.666v38.43h-24.156v-37.82c0-3.782,0-9.028-5.244-9.028c-6.711,0-7.32,5.734-7.32,10.857v35.991
		h-24.156V21.35z"/>
	<path d="M365.008,54.045c-6.465-2.684-10.125-7.198-10.125-14.396c0-16.104,17.811-19.519,30.498-19.519
		c3.904,0,7.809,0.244,11.59,1.22c1.342-9.028,5.855-14.639,15.494-14.639c2.928,0,5.367,0.122,8.662,0.488l-0.611,16.713
		c-2.684-0.366-4.025-0.244-5.979-0.244c-2.195,0-5.611,0.122-6.83,2.318c4.27,3.416,6.953,8.54,6.953,14.029
		c0,15.616-15.982,19.032-28.547,19.032c-2.074,0-3.537-0.244-5.611-0.244c-3.783,0-5.855,0.854-5.855,3.049
		c0,2.439,2.072,2.684,6.709,2.928l17.078,0.732c5.369,0.244,11.104,0.977,15.494,4.271c4.758,3.539,7.199,9.639,7.199,15.494
		c0,8.906-5.979,14.518-13.908,17.201c-6.711,2.318-16.348,2.684-23.668,2.684c-10.369,0-33.793-0.73-33.793-15.371
		c0-5.979,3.539-10.125,9.027-12.078c-3.414-2.561-5.732-5.488-5.732-9.881C353.053,60.633,358.908,56.361,365.008,54.045z
		 M374.889,91.377c3.904,0.977,8.053,1.098,12.078,1.098c3.66,0,12.688,0.611,12.688-4.879c0-4.148-4.148-3.904-7.197-4.027
		c-5.49-0.242-10.857-0.73-16.348-0.73c-2.807,0-6.1,0.244-6.1,3.902C370.01,89.67,372.328,90.768,374.889,91.377z M392.457,40.015
		c0-4.758-2.439-7.808-7.441-7.808c-4.637,0-7.197,3.172-7.197,7.686c0,5.002,2.684,7.564,7.686,7.564
		C390.018,47.457,392.457,44.285,392.457,40.015z"/>
	<path d="M483.1,62.828c-3.781,15.129-17.201,22.084-31.963,22.084c-9.15,0-18.057-1.953-25.131-8.174
		c-6.711-5.979-10.248-14.52-10.127-23.426c-0.121-8.417,3.172-17.567,9.029-23.545c6.342-6.588,15.859-9.638,24.764-9.638
		c20.74,0,33.428,13.419,33.428,33.915v3.293h-41.846c0,6.711,2.197,11.592,9.516,11.592c5.49,0,8.541-2.197,9.518-7.566
		L483.1,62.828z M458.699,45.139c0-6.1-1.951-10.736-8.783-10.736c-6.344,0-8.662,5.002-8.662,10.736H458.699z"/>
	<path d="M506.889,34.159c2.074-8.662,6.588-14.762,16.225-14.029l3.293,0.244v21.837c-1.463-0.366-3.049-0.609-4.635-0.609
		c-3.904,0-7.93,0.732-9.881,4.27c-1.709,3.05-1.709,7.076-1.709,10.734v27.086h-24.154V21.35h20.617v12.81H506.889z"/>
</g>
</svg>
